<svg width="20" height="20" viewBox="0 0 20 20" fill="none" xmlns="http://www.w3.org/2000/svg">
<g clip-path="url(#clip0_119_240)">
<path d="M6.66676 20C8.50677 20 10.0001 18.5066 10.0001 16.6666V13.3333H6.66676C4.82675 13.3333 3.33337 14.8266 3.33337 16.6666C3.33337 18.5066 4.82675 20 6.66676 20Z" fill="#0ACF83"/>
<path d="M3.33337 9.99999C3.33337 8.15999 4.82675 6.66663 6.66676 6.66663H10.0001V13.3333H6.66676C4.82675 13.3333 3.33337 11.84 3.33337 9.99999Z" fill="#A259FF"/>
<path d="M3.33337 3.33336C3.33337 1.49336 4.82675 0 6.66676 0H10.0001V6.66664H6.66676C4.82675 6.66664 3.33337 5.17336 3.33337 3.33336Z" fill="#F24E1E"/>
<path d="M9.99988 0H13.3333C15.1733 0 16.6666 1.49336 16.6666 3.33336C16.6666 5.17336 15.1733 6.66664 13.3333 6.66664H9.99988V0Z" fill="#FF7262"/>
<path d="M16.6666 9.99999C16.6666 11.84 15.1733 13.3333 13.3333 13.3333C11.4932 13.3333 9.99988 11.84 9.99988 9.99999C9.99988 8.15999 11.4932 6.66663 13.3333 6.66663C15.1733 6.66663 16.6666 8.15999 16.6666 9.99999Z" fill="#1ABCFE"/>
</g>
<defs>
<clipPath id="clip0_119_240">
<rect width="20" height="20" fill="white"/>
</clipPath>
</defs>
</svg>
